<?xml version="1.0" encoding="utf-8"?>
<!-- Generator: Adobe Illustrator 17.0.0, SVG Export Plug-In . SVG Version: 6.00 Build 0)  -->
<!DOCTYPE svg PUBLIC "-//W3C//DTD SVG 1.1//EN" "http://www.w3.org/Graphics/SVG/1.1/DTD/svg11.dtd">
<svg version="1.1" id="圖層_1" xmlns="http://www.w3.org/2000/svg" xmlns:xlink="http://www.w3.org/1999/xlink" x="0px" y="0px"
	 width="1620.93px" height="1156.977px" viewBox="0 0 1620.93 1156.977" enable-background="new 0 0 1620.93 1156.977"
	 xml:space="preserve">
<g>
	<g>
		<path d="M454.737,447.306c0.026,33.005,1.294,65.989,1.85,98.986c0.187,11.123,0.696,22.337-0.15,33.443
			c-0.607,7.963-1.54,15.903-2.361,23.846c-1.959,18.957-3.954,38.162-2.875,57.238c0.597,10.552,1.888,25.884,13.434,30.202
			c7.62,2.849,16.869,2.297,24.833,2.049c12.03-0.375,24.034-1.656,35.99-2.972c12.174-1.34,24.327-2.87,36.512-4.115
			c8.642-0.883,17.53-1.943,26.225-1.283c1.066,0.081,2.173-0.818,2.411-1.835c4.497-19.268,0.199-39.571-1.989-58.868
			c-0.121-1.064-0.668-2.17-1.835-2.411c-11.138-2.295-22.695-1.153-33.955-0.641c-11.887,0.54-22.617,0.232-33.804-3.984
			c-22.031-8.302-17.66-37.719-16.406-56.162c1.134-16.669,0.565-33.391,1.405-50.092c0.981-19.51,2.169-39.025,2.023-58.569
			c-0.117-15.504-0.392-32.491-6.533-46.993c-2.538-5.994-6.448-9.375-12.199-12.208c-6.233-3.07-13.619-5.718-20.668-4.509
			c-12.049,2.067-15.732,14.689-16.935,25.217c-1.524,13.343,0.301,27.001,1.988,40.241c0.338,2.655,0.688,5.309,0.961,7.972
			c0.325,3.175,5.329,3.207,5,0c-1.254-12.234-3.234-24.339-3.429-36.667c-0.154-9.748-0.133-27.373,11.274-31.361
			c7.035-2.46,15.33,1.377,21.465,4.521c5.551,2.845,7.967,7.871,9.759,13.65c5.099,16.445,4.53,34.922,4.261,51.936
			c-0.302,19.051-1.648,38.062-2.449,57.094c-0.289,6.872-0.542,13.773-0.222,20.648c0.506,10.878-1.025,21.877-1.544,32.738
			c-0.908,18.988,1.267,39.147,20.92,47.367c21.847,9.138,45.281-0.007,67.759,4.625c-0.612-0.804-1.224-1.607-1.835-2.411
			c2.128,18.759,6.54,38.809,2.168,57.539c0.804-0.612,1.607-1.224,2.411-1.835c-15.24-1.156-31.098,1.753-46.19,3.504
			c-18.741,2.175-37.573,4.657-56.461,4.959c-6.312,0.101-12.983,0.108-19.067-1.789c-4.879-1.521-6.859-6.391-8.144-10.937
			c-4.757-16.829-2.417-36.274-1.007-53.419c1.645-20.008,4.585-39.783,4.452-59.888c-0.254-38.282-2.011-76.538-2.042-114.824
			C459.734,444.082,454.734,444.082,454.737,447.306L454.737,447.306z"/>
	</g>
</g>
<g>
	<g>
		<path d="M648.056,403.653c0.061,14.701,2.641,29.68,6.661,43.787c3.24,11.37,8.547,27.663,20.549,32.669
			c14.789,6.168,27.615-12.346,33.854-22.856c9.068-15.276,8.746-32.719-4.91-44.948c-13.996-12.533-35.339-17.281-53.655-17.388
			c-3.225-0.019-3.223,4.981,0,5c16.943,0.099,36.01,4.369,49.385,15.296c6.397,5.227,10.579,12.36,10.716,20.721
			c0.18,10.978-6.727,21.461-13.395,29.615c-4.203,5.139-10.133,11.164-17.335,10.699c-5.645-0.365-9.787-6.202-12.418-10.547
			c-8.094-13.368-11.294-30.256-13.265-45.551c-0.704-5.466-1.164-10.982-1.187-16.496
			C653.043,400.43,648.043,400.428,648.056,403.653L648.056,403.653z"/>
	</g>
</g>
<g>
	<g>
		<path d="M658.45,522.139c-0.034,22.226-1.217,44.393-0.648,66.634c0.715,27.934,1.904,58.373,12.603,84.575
			c3.583,8.776,8.943,18.005,17.885,22.173c9.582,4.466,20.077,1.016,28.658-4.067c16.188-9.59,14.469-30.777,11.835-46.794
			c-3.613-21.971-11.229-43.033-14.051-65.166c-1.935-15.179-0.363-32.689-7.026-46.835c-7.051-14.968-26.277-15.619-40.519-15.098
			c-3.214,0.118-3.226,5.118,0,5c9.22-0.337,19.43-0.453,27.854,3.877c5.77,2.965,8.745,8.431,10.366,14.485
			c2.035,7.603,2.258,15.691,2.866,23.498c0.753,9.66,1.75,19.328,3.549,28.855c4.151,21.983,12.451,43.354,13.617,65.848
			c0.458,8.832-0.564,18.55-7.095,25.111c-4.166,4.185-10.862,6.927-16.589,8.059c-23.148,4.575-30.58-29.643-33.644-45.616
			c-5.572-29.055-5.84-59.185-5.469-88.672c0.151-11.955,0.79-23.911,0.808-35.866C663.455,518.915,658.455,518.915,658.45,522.139
			L658.45,522.139z"/>
	</g>
</g>
<g>
	<g>
		<path d="M777.357,399.917c16.282-0.093,32.706-3.401,48.813-5.466c19.722-2.529,39.807-5.062,59.726-4.009
			c6.913,0.365,14.481,1.161,20.61,4.642c2.948,1.674,4.766,5.752,6.228,8.63c2.498,4.916,4.175,10.254,5.512,15.588
			c2.548,10.165,3.432,20.89-2.671,29.889c-4.917,7.25-14.121,5.437-21.698,5.529c-7.842,0.096-15.598,0.847-23.46,0.754
			c-7.797-0.092-15.6-0.239-23.384,0.327c-10.972,0.797-26.431,3.443-27.494,16.969c-0.558,7.094,3.682,15.66,7.902,21.073
			c4.948,6.347,12.483,9.394,20.174,10.937c19.133,3.839,39.152-0.201,58.39-1.033c3.541-0.153,7.088-0.16,10.623,0.104
			c-0.804-0.612-1.607-1.224-2.411-1.835c2.219,12.028,6.364,34.449-9.038,39.815c-11.492,4.003-25.625,0.308-37.409-0.397
			c-13.292-0.794-27.061,0.495-37.698,9.284c-11.235,9.283-11.016,28.854-10.806,41.931c0.258,16.053,2.413,32.052,4.407,47.96
			c1.626,12.974,3.988,26.393,3.148,39.511c0.612-0.804,1.224-1.607,1.835-2.411c-9.454,1.978-19.172,4.215-28.891,3.939
			c-6.126-0.174-11.182-2.414-14.313-7.809c-4.389-7.562-4.577-17.07-6.028-25.449c-2.885-16.655-4.299-33.536-5.547-50.379
			c-2.228-30.063-4.977-59.996-8.414-89.946c-3.207-27.948-6.117-56.253-3.208-84.358c1.123-10.854,3.459-21.581,7.116-31.863
			c1.083-3.046-3.749-4.345-4.821-1.329c-9.114,25.623-9.396,53.377-7.672,80.215c1.805,28.104,5.834,56.074,8.638,84.09
			c1.634,16.328,2.548,32.721,3.806,49.081c1.251,16.272,3.74,32.254,5.69,48.427c1.524,12.64,3.737,29.42,18.11,33.417
			c11.577,3.22,25.533-0.843,36.864-3.214c1.129-0.236,1.767-1.346,1.835-2.411c1.066-16.642-2.483-33.78-4.476-50.239
			c-2.277-18.808-4.99-38.662-1.945-57.533c1.06-6.57,3.099-13.52,8.207-18.094c4.976-4.456,11.963-6.645,18.455-7.512
			c13.498-1.802,27.061,1.227,40.552,1.536c8.501,0.195,18.053-1.06,23.536-8.317c8.09-10.707,5.116-27.191,2.887-39.274
			c-0.21-1.138-1.367-1.757-2.411-1.835c-19.021-1.424-38.083,2.98-57.158,2.24c-8.695-0.337-18.49-1.668-25.394-7.445
			c-5.555-4.648-10.058-14.265-9.485-21.556c1.019-12.959,26.144-11.665,34.639-11.709c7.338-0.038,14.679,0.276,22.016,0.061
			c4.218-0.124,8.407-0.629,12.63-0.724c4.373-0.098,8.766,0.228,13.126-0.196c19.298-1.877,19.434-26.163,16.361-40.285
			c-1.87-8.594-5.073-18.269-10.744-25.169c-4.021-4.893-10.535-6.492-16.535-7.531c-18.378-3.181-37.867-0.796-56.235,1.256
			c-18.3,2.045-36.499,5.173-54.85,6.741c-2.543,0.217-5.093,0.367-7.645,0.382C774.134,394.936,774.132,399.936,777.357,399.917
			L777.357,399.917z"/>
	</g>
</g>
<g>
	<g>
		<path d="M1006.679,408.143c38.837-10.089,78.964-12.534,118.486-18.708c-0.941-0.383-1.882-0.766-2.823-1.149
			c5.088,10.334,8.641,21.411,10.6,32.759c1.676,9.712,2.51,22.447-3.974,30.695c-5.668,7.209-17.137,7.249-25.426,7.416
			c-10.025,0.202-20.068-0.679-30.079,0.151c-6.678,0.554-13.733,2.137-17.845,7.881c-4.715,6.586-6.741,15.057-8.026,22.92
			c-2.226,13.621-3.213,36.173,12.999,41.673c7.911,2.684,17.474,0.571,25.357-1.127c8.275-1.783,16.33-4.624,24.666-6.103
			c-1.025-0.582-2.05-1.164-3.075-1.746c4.189,17.424,4.067,35.567,4.068,53.382c0.612-0.804,1.224-1.607,1.835-2.411
			c-9.523,1.448-19.49,0.451-29.091,0.747c-8.319,0.257-18.589,0.548-25.553,5.741c-4.346,3.241-6.085,11.692-7.539,16.51
			c-2.578,8.542-4.395,17.737-3.872,26.693c0.33,5.651,2.157,12.345,7.864,14.694c5.308,2.185,11.725,1.742,17.316,1.381
			c18.617-1.201,37.121-5.563,55.278-9.616c11.565-2.581,23.081-5.526,34.737-7.675c-1.025-0.582-2.05-1.164-3.075-1.746
			c4.067,16.091,7.487,37.13-7.005,49.121c-12.299,10.176-32.027,10.419-47.088,11.205c-10.824,0.565-21.686,0.537-32.476,1.616
			c-12.62,1.262-25.12,3.641-37.807,4.21c-11.339,0.509-22.932-1.092-31.398-9.283c-8.026-7.765-12.914-18.974-15.835-29.543
			c-8.853-32.031-2.348-66.05-2.249-98.667c0.145-47.76-1.832-95.741,8.226-142.766c0.673-3.144-4.147-4.482-4.821-1.329
			c-12.386,57.912-6.625,117.165-9.73,175.835c-1.224,23.119-2.118,47.011,4.11,69.547c5.417,19.599,18.039,38.347,39.593,40.796
			c20.907,2.376,42.02-3.91,62.896-4.654c15.954-0.568,32.154-0.692,47.857-3.884c11.492-2.336,22.898-7.259,29.233-17.618
			c8.242-13.476,4.939-31.584,1.316-45.917c-0.355-1.404-1.759-1.989-3.075-1.746c-16.337,3.013-32.446,7.292-48.702,10.71
			c-16.367,3.441-34.294,8.026-51.144,6.389c-16.337-1.587-7.44-29.972-4.396-39.399c1.023-3.166,2.195-6.309,3.743-9.259
			c1.628-3.103,5.414-3.943,8.596-4.727c10.171-2.507,21.23-1.735,31.617-1.768c4.614-0.015,9.235-0.081,13.804-0.776
			c1.082-0.164,1.835-1.398,1.835-2.411c-0.002-18.265,0.048-36.847-4.247-54.711c-0.34-1.414-1.77-1.978-3.075-1.746
			c-9.173,1.628-18.046,4.754-27.176,6.632c-8.343,1.716-19.702,3.792-26.024-3.436c-5.455-6.236-4.895-17.606-4.382-25.232
			c0.592-8.805,2.51-18.317,6.946-26.041c4.102-7.142,12.972-7.418,20.348-7.653c10.185-0.325,20.368,0.544,30.55-0.08
			c7.968-0.489,16.493-1.983,22.303-7.9c6.278-6.394,7.291-16.497,7.098-24.975c-0.354-15.58-5.455-31.4-12.289-45.282
			c-0.53-1.076-1.763-1.315-2.823-1.149c-39.524,6.175-79.646,8.618-118.486,18.708
			C1002.232,404.132,1003.556,408.954,1006.679,408.143L1006.679,408.143z"/>
	</g>
</g>
<g>
	<g>
		<path d="M1883.227,678.463c3.224,0,3.224-5,0-5S1880.003,678.463,1883.227,678.463L1883.227,678.463z"/>
	</g>
</g>
<g>
	<g>
		<path d="M1715.327,503.816c3.224,0,3.224-5,0-5C1712.103,498.816,1712.103,503.816,1715.327,503.816L1715.327,503.816z"/>
	</g>
</g>
</svg>
